<svg width="510" height="510" viewBox="0 0 510 510" fill="none" xmlns="http://www.w3.org/2000/svg">
<path d="M344.42 454.155H146.965C145.52 454.155 144.33 452.965 144.33 451.52V451.01C144.33 449.565 145.52 448.375 146.965 448.375H344.335C345.78 448.375 346.97 449.565 346.97 451.01V451.52C347.055 452.965 345.865 454.155 344.42 454.155Z" fill="#99ADF9"/>
<path d="M137.105 153.68C136.68 153.68 136.34 153.34 136.34 152.915V148.92C136.34 148.495 136.68 148.155 137.105 148.155C137.53 148.155 137.87 148.495 137.87 148.92V152.915C137.785 153.34 137.445 153.68 137.105 153.68Z" fill="#C5DFFF"/>
<path d="M137.105 189.38C136.68 189.38 136.34 189.04 136.34 188.615V179.69C136.34 179.265 136.68 178.925 137.105 178.925C137.53 178.925 137.87 179.265 137.87 179.69V188.615C137.785 189.04 137.445 189.38 137.105 189.38ZM137.105 171.53C136.68 171.53 136.34 171.19 136.34 170.765V161.84C136.34 161.415 136.68 161.075 137.105 161.075C137.53 161.075 137.87 161.415 137.87 161.84V170.765C137.785 171.19 137.445 171.53 137.105 171.53Z" fill="#C5DFFF"/>
<path d="M147.05 153.68C146.625 153.68 146.285 153.34 146.285 152.915V148.92C146.285 148.495 146.625 148.155 147.05 148.155C147.475 148.155 147.815 148.495 147.815 148.92V152.915C147.815 153.34 147.475 153.68 147.05 153.68Z" fill="#C5DFFF"/>
<path d="M147.05 189.38C146.625 189.38 146.285 189.04 146.285 188.615V179.69C146.285 179.265 146.625 178.925 147.05 178.925C147.475 178.925 147.815 179.265 147.815 179.69V188.615C147.815 189.04 147.475 189.38 147.05 189.38ZM147.05 171.53C146.625 171.53 146.285 171.19 146.285 170.765V161.84C146.285 161.415 146.625 161.075 147.05 161.075C147.475 161.075 147.815 161.415 147.815 161.84V170.765C147.815 171.19 147.475 171.53 147.05 171.53Z" fill="#C5DFFF"/>
<path d="M156.995 153.68C156.57 153.68 156.23 153.34 156.23 152.915V148.92C156.23 148.495 156.57 148.155 156.995 148.155C157.42 148.155 157.76 148.495 157.76 148.92V152.915C157.76 153.34 157.42 153.68 156.995 153.68Z" fill="#C5DFFF"/>
<path d="M156.995 207.145C156.57 207.145 156.23 206.805 156.23 206.38V197.455C156.23 197.03 156.57 196.69 156.995 196.69C157.42 196.69 157.76 197.03 157.76 197.455V206.38C157.76 206.89 157.42 207.145 156.995 207.145ZM156.995 189.38C156.57 189.38 156.23 189.04 156.23 188.615V179.69C156.23 179.265 156.57 178.925 156.995 178.925C157.42 178.925 157.76 179.265 157.76 179.69V188.615C157.76 189.04 157.42 189.38 156.995 189.38ZM156.995 171.53C156.57 171.53 156.23 171.19 156.23 170.765V161.84C156.23 161.415 156.57 161.075 156.995 161.075C157.42 161.075 157.76 161.415 157.76 161.84V170.765C157.76 171.19 157.42 171.53 156.995 171.53Z" fill="#C5DFFF"/>
<path d="M167.025 153.68C166.6 153.68 166.26 153.34 166.26 152.915V148.92C166.26 148.495 166.6 148.155 167.025 148.155C167.45 148.155 167.79 148.495 167.79 148.92V152.915C167.705 153.34 167.365 153.68 167.025 153.68Z" fill="#C5DFFF"/>
<path d="M167.025 207.145C166.6 207.145 166.26 206.805 166.26 206.38V197.455C166.26 197.03 166.6 196.69 167.025 196.69C167.45 196.69 167.79 197.03 167.79 197.455V206.38C167.705 206.89 167.365 207.145 167.025 207.145ZM167.025 189.38C166.6 189.38 166.26 189.04 166.26 188.615V179.69C166.26 179.265 166.6 178.925 167.025 178.925C167.45 178.925 167.79 179.265 167.79 179.69V188.615C167.705 189.04 167.365 189.38 167.025 189.38ZM167.025 171.53C166.6 171.53 166.26 171.19 166.26 170.765V161.84C166.26 161.415 166.6 161.075 167.025 161.075C167.45 161.075 167.79 161.415 167.79 161.84V170.765C167.705 171.19 167.365 171.53 167.025 171.53Z" fill="#C5DFFF"/>
<path d="M176.97 153.68C176.545 153.68 176.205 153.34 176.205 152.915V148.92C176.205 148.495 176.545 148.155 176.97 148.155C177.395 148.155 177.735 148.495 177.735 148.92V152.915C177.735 153.34 177.395 153.68 176.97 153.68Z" fill="#C5DFFF"/>
<path d="M176.97 207.145C176.545 207.145 176.205 206.805 176.205 206.38V197.455C176.205 197.03 176.545 196.69 176.97 196.69C177.395 196.69 177.735 197.03 177.735 197.455V206.38C177.735 206.89 177.395 207.145 176.97 207.145ZM176.97 189.38C176.545 189.38 176.205 189.04 176.205 188.615V179.69C176.205 179.265 176.545 178.925 176.97 178.925C177.395 178.925 177.735 179.265 177.735 179.69V188.615C177.735 189.04 177.395 189.38 176.97 189.38ZM176.97 171.53C176.545 171.53 176.205 171.19 176.205 170.765V161.84C176.205 161.415 176.545 161.075 176.97 161.075C177.395 161.075 177.735 161.415 177.735 161.84V170.765C177.735 171.19 177.395 171.53 176.97 171.53Z" fill="#C5DFFF"/>
<path d="M176.97 220.15C176.545 220.15 176.205 219.81 176.205 219.385V215.39C176.205 214.965 176.545 214.625 176.97 214.625C177.395 214.625 177.735 214.965 177.735 215.39V219.385C177.735 219.81 177.395 220.15 176.97 220.15Z" fill="#C5DFFF"/>
<path d="M186.915 153.68C186.49 153.68 186.15 153.34 186.15 152.915V148.92C186.15 148.495 186.49 148.155 186.915 148.155C187.34 148.155 187.68 148.495 187.68 148.92V152.915C187.68 153.34 187.34 153.68 186.915 153.68Z" fill="#C5DFFF"/>
<path d="M186.915 207.145C186.49 207.145 186.15 206.805 186.15 206.38V197.455C186.15 197.03 186.49 196.69 186.915 196.69C187.34 196.69 187.68 197.03 187.68 197.455V206.38C187.68 206.89 187.34 207.145 186.915 207.145ZM186.915 189.38C186.49 189.38 186.15 189.04 186.15 188.615V179.69C186.15 179.265 186.49 178.925 186.915 178.925C187.34 178.925 187.68 179.265 187.68 179.69V188.615C187.68 189.04 187.34 189.38 186.915 189.38ZM186.915 171.53C186.49 171.53 186.15 171.19 186.15 170.765V161.84C186.15 161.415 186.49 161.075 186.915 161.075C187.34 161.075 187.68 161.415 187.68 161.84V170.765C187.68 171.19 187.34 171.53 186.915 171.53Z" fill="#C5DFFF"/>
<path d="M186.915 220.15C186.49 220.15 186.15 219.81 186.15 219.385V215.39C186.15 214.965 186.49 214.625 186.915 214.625C187.34 214.625 187.68 214.965 187.68 215.39V219.385C187.68 219.81 187.34 220.15 186.915 220.15Z" fill="#C5DFFF"/>
<path d="M211.82 130.22C211.395 130.22 211.055 129.88 211.055 129.455V125.46C211.055 125.035 211.395 124.695 211.82 124.695C212.245 124.695 212.585 125.035 212.585 125.46V129.455C212.585 129.88 212.245 130.22 211.82 130.22Z" fill="#C5DFFF"/>
<path d="M211.82 165.835C211.395 165.835 211.055 165.495 211.055 165.07V156.145C211.055 155.72 211.395 155.38 211.82 155.38C212.245 155.38 212.585 155.72 212.585 156.145V165.07C212.585 165.58 212.245 165.835 211.82 165.835ZM211.82 148.07C211.395 148.07 211.055 147.73 211.055 147.305V138.38C211.055 137.955 211.395 137.615 211.82 137.615C212.245 137.615 212.585 137.955 212.585 138.38V147.305C212.585 147.73 212.245 148.07 211.82 148.07Z" fill="#C5DFFF"/>
<path d="M221.765 130.22C221.34 130.22 221 129.88 221 129.455V125.46C221 125.035 221.34 124.695 221.765 124.695C222.19 124.695 222.53 125.035 222.53 125.46V129.455C222.53 129.88 222.19 130.22 221.765 130.22Z" fill="#C5DFFF"/>
<path d="M221.765 165.835C221.34 165.835 221 165.495 221 165.07V156.145C221 155.72 221.34 155.38 221.765 155.38C222.19 155.38 222.53 155.72 222.53 156.145V165.07C222.53 165.58 222.19 165.835 221.765 165.835ZM221.765 148.07C221.34 148.07 221 147.73 221 147.305V138.38C221 137.955 221.34 137.615 221.765 137.615C222.19 137.615 222.53 137.955 222.53 138.38V147.305C222.53 147.73 222.19 148.07 221.765 148.07Z" fill="#C5DFFF"/>
<path d="M231.795 130.22C231.37 130.22 231.03 129.88 231.03 129.455V125.46C231.03 125.035 231.37 124.695 231.795 124.695C232.22 124.695 232.56 125.035 232.56 125.46V129.455C232.475 129.88 232.135 130.22 231.795 130.22Z" fill="#C5DFFF"/>
<path d="M231.795 183.685C231.37 183.685 231.03 183.345 231.03 182.92V173.995C231.03 173.57 231.37 173.23 231.795 173.23C232.22 173.23 232.56 173.57 232.56 173.995V182.92C232.475 183.43 232.135 183.685 231.795 183.685ZM231.795 165.835C231.37 165.835 231.03 165.495 231.03 165.07V156.145C231.03 155.72 231.37 155.38 231.795 155.38C232.22 155.38 232.56 155.72 232.56 156.145V165.07C232.475 165.58 232.135 165.835 231.795 165.835ZM231.795 148.07C231.37 148.07 231.03 147.73 231.03 147.305V138.38C231.03 137.955 231.37 137.615 231.795 137.615C232.22 137.615 232.56 137.955 232.56 138.38V147.305C232.475 147.73 232.135 148.07 231.795 148.07Z" fill="#C5DFFF"/>
<path d="M261.63 130.22C261.205 130.22 260.865 129.88 260.865 129.455V125.46C260.865 125.035 261.205 124.695 261.63 124.695C262.055 124.695 262.395 125.035 262.395 125.46V129.455C262.395 129.88 262.055 130.22 261.63 130.22Z" fill="#C5DFFF"/>
<path d="M261.63 183.685C261.205 183.685 260.865 183.345 260.865 182.92V173.995C260.865 173.57 261.205 173.23 261.63 173.23C262.055 173.23 262.395 173.57 262.395 173.995V182.92C262.395 183.43 262.055 183.685 261.63 183.685ZM261.63 165.835C261.205 165.835 260.865 165.495 260.865 165.07V156.145C260.865 155.72 261.205 155.38 261.63 155.38C262.055 155.38 262.395 155.72 262.395 156.145V165.07C262.395 165.58 262.055 165.835 261.63 165.835ZM261.63 148.07C261.205 148.07 260.865 147.73 260.865 147.305V138.38C260.865 137.955 261.205 137.615 261.63 137.615C262.055 137.615 262.395 137.955 262.395 138.38V147.305C262.395 147.73 262.055 148.07 261.63 148.07Z" fill="#C5DFFF"/>
<path d="M271.405 130.22C270.98 130.22 270.64 129.88 270.64 129.455V125.46C270.64 125.035 270.98 124.695 271.405 124.695C271.83 124.695 272.17 125.035 272.17 125.46V129.455C272.085 129.88 271.745 130.22 271.405 130.22Z" fill="#C5DFFF"/>
<path d="M271.405 183.685C270.98 183.685 270.64 183.345 270.64 182.92V173.995C270.64 173.57 270.98 173.23 271.405 173.23C271.83 173.23 272.17 173.57 272.17 173.995V182.92C272.085 183.43 271.745 183.685 271.405 183.685ZM271.405 165.835C270.98 165.835 270.64 165.495 270.64 165.07V156.145C270.64 155.72 270.98 155.38 271.405 155.38C271.83 155.38 272.17 155.72 272.17 156.145V165.07C272.085 165.58 271.745 165.835 271.405 165.835ZM271.405 148.07C270.98 148.07 270.64 147.73 270.64 147.305V138.38C270.64 137.955 270.98 137.615 271.405 137.615C271.83 137.615 272.17 137.955 272.17 138.38V147.305C272.085 147.73 271.745 148.07 271.405 148.07Z" fill="#C5DFFF"/>
<path d="M281.35 130.22C280.925 130.22 280.585 129.88 280.585 129.455V125.46C280.585 125.035 280.925 124.695 281.35 124.695C281.775 124.695 282.115 125.035 282.115 125.46V129.455C282.115 129.88 281.775 130.22 281.35 130.22Z" fill="#C5DFFF"/>
<path d="M281.35 183.685C280.925 183.685 280.585 183.345 280.585 182.92V173.995C280.585 173.57 280.925 173.23 281.35 173.23C281.775 173.23 282.115 173.57 282.115 173.995V182.92C282.115 183.43 281.775 183.685 281.35 183.685ZM281.35 165.835C280.925 165.835 280.585 165.495 280.585 165.07V156.145C280.585 155.72 280.925 155.38 281.35 155.38C281.775 155.38 282.115 155.72 282.115 156.145V165.07C282.115 165.58 281.775 165.835 281.35 165.835ZM281.35 148.07C280.925 148.07 280.585 147.73 280.585 147.305V138.38C280.585 137.955 280.925 137.615 281.35 137.615C281.775 137.615 282.115 137.955 282.115 138.38V147.305C282.115 147.73 281.775 148.07 281.35 148.07Z" fill="#C5DFFF"/>
<path d="M291.295 130.22C290.87 130.22 290.53 129.88 290.53 129.455V125.46C290.53 125.035 290.87 124.695 291.295 124.695C291.72 124.695 292.06 125.035 292.06 125.46V129.455C292.06 129.88 291.72 130.22 291.295 130.22Z" fill="#C5DFFF"/>
<path d="M291.295 183.685C290.87 183.685 290.53 183.345 290.53 182.92V173.995C290.53 173.57 290.87 173.23 291.295 173.23C291.72 173.23 292.06 173.57 292.06 173.995V182.92C292.06 183.43 291.72 183.685 291.295 183.685ZM291.295 165.835C290.87 165.835 290.53 165.495 290.53 165.07V156.145C290.53 155.72 290.87 155.38 291.295 155.38C291.72 155.38 292.06 155.72 292.06 156.145V165.07C292.06 165.58 291.72 165.835 291.295 165.835ZM291.295 148.07C290.87 148.07 290.53 147.73 290.53 147.305V138.38C290.53 137.955 290.87 137.615 291.295 137.615C291.72 137.615 292.06 137.955 292.06 138.38V147.305C292.06 147.73 291.72 148.07 291.295 148.07Z" fill="#C5DFFF"/>
<path d="M251.685 199.665C251.26 199.665 250.92 199.325 250.92 198.9V189.975C250.92 189.55 251.26 189.21 251.685 189.21C252.11 189.21 252.45 189.55 252.45 189.975V198.9C252.45 199.325 252.11 199.665 251.685 199.665Z" fill="#C5DFFF"/>
<path d="M261.63 199.665C261.205 199.665 260.865 199.325 260.865 198.9V189.975C260.865 189.55 261.205 189.21 261.63 189.21C262.055 189.21 262.395 189.55 262.395 189.975V198.9C262.395 199.325 262.055 199.665 261.63 199.665Z" fill="#C5DFFF"/>
<path d="M271.405 199.665C270.98 199.665 270.64 199.325 270.64 198.9V189.975C270.64 189.55 270.98 189.21 271.405 189.21C271.83 189.21 272.17 189.55 272.17 189.975V198.9C272.085 199.325 271.745 199.665 271.405 199.665Z" fill="#C5DFFF"/>
<path d="M281.35 217.515C280.925 217.515 280.585 217.175 280.585 216.75V207.825C280.585 207.4 280.925 207.06 281.35 207.06C281.775 207.06 282.115 207.4 282.115 207.825V216.75C282.115 217.175 281.775 217.515 281.35 217.515ZM281.35 199.665C280.925 199.665 280.585 199.325 280.585 198.9V189.975C280.585 189.55 280.925 189.21 281.35 189.21C281.775 189.21 282.115 189.55 282.115 189.975V198.9C282.115 199.325 281.775 199.665 281.35 199.665Z" fill="#C5DFFF"/>
<path d="M291.295 235.365C290.87 235.365 290.53 235.025 290.53 234.6V225.675C290.53 225.25 290.87 224.91 291.295 224.91C291.72 224.91 292.06 225.25 292.06 225.675V234.6C292.06 235.025 291.72 235.365 291.295 235.365ZM291.295 217.515C290.87 217.515 290.53 217.175 290.53 216.75V207.825C290.53 207.4 290.87 207.06 291.295 207.06C291.72 207.06 292.06 207.4 292.06 207.825V216.75C292.06 217.175 291.72 217.515 291.295 217.515ZM291.295 199.665C290.87 199.665 290.53 199.325 290.53 198.9V189.975C290.53 189.55 290.87 189.21 291.295 189.21C291.72 189.21 292.06 189.55 292.06 189.975V198.9C292.06 199.325 291.72 199.665 291.295 199.665Z" fill="#C5DFFF"/>
<path d="M301.325 235.365C300.9 235.365 300.56 235.025 300.56 234.6V225.675C300.56 225.25 300.9 224.91 301.325 224.91C301.75 224.91 302.09 225.25 302.09 225.675V234.6C302.005 235.025 301.665 235.365 301.325 235.365ZM301.325 217.515C300.9 217.515 300.56 217.175 300.56 216.75V207.825C300.56 207.4 300.9 207.06 301.325 207.06C301.75 207.06 302.09 207.4 302.09 207.825V216.75C302.005 217.175 301.665 217.515 301.325 217.515ZM301.325 199.665C300.9 199.665 300.56 199.325 300.56 198.9V189.975C300.56 189.55 300.9 189.21 301.325 189.21C301.75 189.21 302.09 189.55 302.09 189.975V198.9C302.005 199.325 301.665 199.665 301.325 199.665Z" fill="#C5DFFF"/>
<path d="M311.27 235.365C310.845 235.365 310.505 235.025 310.505 234.6V225.675C310.505 225.25 310.845 224.91 311.27 224.91C311.695 224.91 312.035 225.25 312.035 225.675V234.6C311.95 235.025 311.695 235.365 311.27 235.365ZM311.27 217.515C310.845 217.515 310.505 217.175 310.505 216.75V207.825C310.505 207.4 310.845 207.06 311.27 207.06C311.695 207.06 312.035 207.4 312.035 207.825V216.75C311.95 217.175 311.695 217.515 311.27 217.515ZM311.27 199.665C310.845 199.665 310.505 199.325 310.505 198.9V189.975C310.505 189.55 310.845 189.21 311.27 189.21C311.695 189.21 312.035 189.55 312.035 189.975V198.9C311.95 199.325 311.695 199.665 311.27 199.665Z" fill="#C5DFFF"/>
<path d="M311.27 248.285C310.845 248.285 310.505 247.945 310.505 247.52V243.525C310.505 243.1 310.845 242.76 311.27 242.76C311.695 242.76 312.035 243.1 312.035 243.525V247.52C311.95 247.945 311.695 248.285 311.27 248.285Z" fill="#C5DFFF"/>
<path d="M321.215 235.365C320.79 235.365 320.45 235.025 320.45 234.6V225.675C320.45 225.25 320.79 224.91 321.215 224.91C321.64 224.91 321.98 225.25 321.98 225.675V234.6C321.98 235.025 321.64 235.365 321.215 235.365ZM321.215 217.515C320.79 217.515 320.45 217.175 320.45 216.75V207.825C320.45 207.4 320.79 207.06 321.215 207.06C321.64 207.06 321.98 207.4 321.98 207.825V216.75C321.98 217.175 321.64 217.515 321.215 217.515ZM321.215 199.665C320.79 199.665 320.45 199.325 320.45 198.9V189.975C320.45 189.55 320.79 189.21 321.215 189.21C321.64 189.21 321.98 189.55 321.98 189.975V198.9C321.98 199.325 321.64 199.665 321.215 199.665Z" fill="#C5DFFF"/>
<path d="M321.215 248.285C320.79 248.285 320.45 247.945 320.45 247.52V243.525C320.45 243.1 320.79 242.76 321.215 242.76C321.64 242.76 321.98 243.1 321.98 243.525V247.52C321.98 247.945 321.64 248.285 321.215 248.285Z" fill="#C5DFFF"/>
<path d="M301.325 130.22C300.9 130.22 300.56 129.88 300.56 129.455V125.46C300.56 125.035 300.9 124.695 301.325 124.695C301.75 124.695 302.09 125.035 302.09 125.46V129.455C302.005 129.88 301.665 130.22 301.325 130.22Z" fill="#C5DFFF"/>
<path d="M301.325 183.685C300.9 183.685 300.56 183.345 300.56 182.92V173.995C300.56 173.57 300.9 173.23 301.325 173.23C301.75 173.23 302.09 173.57 302.09 173.995V182.92C302.005 183.43 301.665 183.685 301.325 183.685ZM301.325 165.835C300.9 165.835 300.56 165.495 300.56 165.07V156.145C300.56 155.72 300.9 155.38 301.325 155.38C301.75 155.38 302.09 155.72 302.09 156.145V165.07C302.005 165.58 301.665 165.835 301.325 165.835ZM301.325 148.07C300.9 148.07 300.56 147.73 300.56 147.305V138.38C300.56 137.955 300.9 137.615 301.325 137.615C301.75 137.615 302.09 137.955 302.09 138.38V147.305C302.005 147.73 301.665 148.07 301.325 148.07Z" fill="#C5DFFF"/>
<path d="M311.27 130.22C310.845 130.22 310.505 129.88 310.505 129.455V125.46C310.505 125.035 310.845 124.695 311.27 124.695C311.695 124.695 312.035 125.035 312.035 125.46V129.455C311.95 129.88 311.695 130.22 311.27 130.22Z" fill="#C5DFFF"/>
<path d="M311.27 183.685C310.845 183.685 310.505 183.345 310.505 182.92V173.995C310.505 173.57 310.845 173.23 311.27 173.23C311.695 173.23 312.035 173.57 312.035 173.995V182.92C311.95 183.43 311.695 183.685 311.27 183.685ZM311.27 165.835C310.845 165.835 310.505 165.495 310.505 165.07V156.145C310.505 155.72 310.845 155.38 311.27 155.38C311.695 155.38 312.035 155.72 312.035 156.145V165.07C311.95 165.58 311.695 165.835 311.27 165.835ZM311.27 148.07C310.845 148.07 310.505 147.73 310.505 147.305V138.38C310.505 137.955 310.845 137.615 311.27 137.615C311.695 137.615 312.035 137.955 312.035 138.38V147.305C311.95 147.73 311.695 148.07 311.27 148.07Z" fill="#C5DFFF"/>
<path d="M321.215 130.22C320.79 130.22 320.45 129.88 320.45 129.455V125.46C320.45 125.035 320.79 124.695 321.215 124.695C321.64 124.695 321.98 125.035 321.98 125.46V129.455C321.98 129.88 321.64 130.22 321.215 130.22Z" fill="#C5DFFF"/>
<path d="M321.215 183.685C320.79 183.685 320.45 183.345 320.45 182.92V173.995C320.45 173.57 320.79 173.23 321.215 173.23C321.64 173.23 321.98 173.57 321.98 173.995V182.92C321.98 183.43 321.64 183.685 321.215 183.685ZM321.215 165.835C320.79 165.835 320.45 165.495 320.45 165.07V156.145C320.45 155.72 320.79 155.38 321.215 155.38C321.64 155.38 321.98 155.72 321.98 156.145V165.07C321.98 165.58 321.64 165.835 321.215 165.835ZM321.215 148.07C320.79 148.07 320.45 147.73 320.45 147.305V138.38C320.45 137.955 320.79 137.615 321.215 137.615C321.64 137.615 321.98 137.955 321.98 138.38V147.305C321.98 147.73 321.64 148.07 321.215 148.07Z" fill="#C5DFFF"/>
<path d="M241.74 130.22C241.315 130.22 240.975 129.88 240.975 129.455V125.46C240.975 125.035 241.315 124.695 241.74 124.695C242.165 124.695 242.505 125.035 242.505 125.46V129.455C242.42 129.88 242.165 130.22 241.74 130.22Z" fill="#C5DFFF"/>
<path d="M241.74 183.685C241.315 183.685 240.975 183.345 240.975 182.92V173.995C240.975 173.57 241.315 173.23 241.74 173.23C242.165 173.23 242.505 173.57 242.505 173.995V182.92C242.42 183.43 242.165 183.685 241.74 183.685ZM241.74 165.835C241.315 165.835 240.975 165.495 240.975 165.07V156.145C240.975 155.72 241.315 155.38 241.74 155.38C242.165 155.38 242.505 155.72 242.505 156.145V165.07C242.42 165.58 242.165 165.835 241.74 165.835ZM241.74 148.07C241.315 148.07 240.975 147.73 240.975 147.305V138.38C240.975 137.955 241.315 137.615 241.74 137.615C242.165 137.615 242.505 137.955 242.505 138.38V147.305C242.42 147.73 242.165 148.07 241.74 148.07Z" fill="#C5DFFF"/>
<path d="M251.685 130.22C251.26 130.22 250.92 129.88 250.92 129.455V125.46C250.92 125.035 251.26 124.695 251.685 124.695C252.11 124.695 252.45 125.035 252.45 125.46V129.455C252.45 129.88 252.11 130.22 251.685 130.22Z" fill="#C5DFFF"/>
<path d="M251.685 183.685C251.26 183.685 250.92 183.345 250.92 182.92V173.995C250.92 173.57 251.26 173.23 251.685 173.23C252.11 173.23 252.45 173.57 252.45 173.995V182.92C252.45 183.43 252.11 183.685 251.685 183.685ZM251.685 165.835C251.26 165.835 250.92 165.495 250.92 165.07V156.145C250.92 155.72 251.26 155.38 251.685 155.38C252.11 155.38 252.45 155.72 252.45 156.145V165.07C252.45 165.58 252.11 165.835 251.685 165.835ZM251.685 148.07C251.26 148.07 250.92 147.73 250.92 147.305V138.38C250.92 137.955 251.26 137.615 251.685 137.615C252.11 137.615 252.45 137.955 252.45 138.38V147.305C252.45 147.73 252.11 148.07 251.685 148.07Z" fill="#C5DFFF"/>
<path d="M343.06 199.41C342.635 199.41 342.295 199.07 342.295 198.645V194.65C342.295 194.225 342.635 193.885 343.06 193.885C343.485 193.885 343.825 194.225 343.825 194.65V198.645C343.74 199.07 343.4 199.41 343.06 199.41Z" fill="#C5DFFF"/>
<path d="M343.06 252.875C342.635 252.875 342.295 252.535 342.295 252.11V243.185C342.295 242.76 342.635 242.42 343.06 242.42C343.485 242.42 343.825 242.76 343.825 243.185V252.11C343.74 252.535 343.4 252.875 343.06 252.875ZM343.06 235.025C342.635 235.025 342.295 234.685 342.295 234.26V225.335C342.295 224.91 342.635 224.57 343.06 224.57C343.485 224.57 343.825 224.91 343.825 225.335V234.26C343.74 234.685 343.4 235.025 343.06 235.025ZM343.06 217.175C342.635 217.175 342.295 216.835 342.295 216.41V207.485C342.295 207.06 342.635 206.72 343.06 206.72C343.485 206.72 343.825 207.06 343.825 207.485V216.41C343.74 216.92 343.4 217.175 343.06 217.175Z" fill="#C5DFFF"/>
<path d="M343.06 265.795C342.635 265.795 342.295 265.455 342.295 265.03V261.035C342.295 260.61 342.635 260.27 343.06 260.27C343.485 260.27 343.825 260.61 343.825 261.035V265.03C343.74 265.54 343.4 265.795 343.06 265.795Z" fill="#C5DFFF"/>
<path d="M353.005 199.41C352.58 199.41 352.24 199.07 352.24 198.645V194.65C352.24 194.225 352.58 193.885 353.005 193.885C353.43 193.885 353.77 194.225 353.77 194.65V198.645C353.685 199.07 353.43 199.41 353.005 199.41Z" fill="#C5DFFF"/>
<path d="M353.005 252.875C352.58 252.875 352.24 252.535 352.24 252.11V243.185C352.24 242.76 352.58 242.42 353.005 242.42C353.43 242.42 353.77 242.76 353.77 243.185V252.11C353.685 252.535 353.43 252.875 353.005 252.875ZM353.005 235.025C352.58 235.025 352.24 234.685 352.24 234.26V225.335C352.24 224.91 352.58 224.57 353.005 224.57C353.43 224.57 353.77 224.91 353.77 225.335V234.26C353.685 234.685 353.43 235.025 353.005 235.025ZM353.005 217.175C352.58 217.175 352.24 216.835 352.24 216.41V207.485C352.24 207.06 352.58 206.72 353.005 206.72C353.43 206.72 353.77 207.06 353.77 207.485V216.41C353.685 216.92 353.43 217.175 353.005 217.175Z" fill="#C5DFFF"/>
<path d="M353.005 265.795C352.58 265.795 352.24 265.455 352.24 265.03V261.035C352.24 260.61 352.58 260.27 353.005 260.27C353.43 260.27 353.77 260.61 353.77 261.035V265.03C353.685 265.54 353.43 265.795 353.005 265.795Z" fill="#C5DFFF"/>
<path d="M362.95 199.41C362.525 199.41 362.185 199.07 362.185 198.645V194.65C362.185 194.225 362.525 193.885 362.95 193.885C363.375 193.885 363.715 194.225 363.715 194.65V198.645C363.715 199.07 363.375 199.41 362.95 199.41Z" fill="#C5DFFF"/>
<path d="M362.95 252.875C362.525 252.875 362.185 252.535 362.185 252.11V243.185C362.185 242.76 362.525 242.42 362.95 242.42C363.375 242.42 363.715 242.76 363.715 243.185V252.11C363.715 252.535 363.375 252.875 362.95 252.875ZM362.95 235.025C362.525 235.025 362.185 234.685 362.185 234.26V225.335C362.185 224.91 362.525 224.57 362.95 224.57C363.375 224.57 363.715 224.91 363.715 225.335V234.26C363.715 234.685 363.375 235.025 362.95 235.025ZM362.95 217.175C362.525 217.175 362.185 216.835 362.185 216.41V207.485C362.185 207.06 362.525 206.72 362.95 206.72C363.375 206.72 363.715 207.06 363.715 207.485V216.41C363.715 216.92 363.375 217.175 362.95 217.175Z" fill="#C5DFFF"/>
<path d="M372.98 199.41C372.555 199.41 372.215 199.07 372.215 198.645V194.65C372.215 194.225 372.555 193.885 372.98 193.885C373.405 193.885 373.745 194.225 373.745 194.65V198.645C373.66 199.07 373.32 199.41 372.98 199.41Z" fill="#C5DFFF"/>
<path d="M372.98 252.875C372.555 252.875 372.215 252.535 372.215 252.11V243.185C372.215 242.76 372.555 242.42 372.98 242.42C373.405 242.42 373.745 242.76 373.745 243.185V252.11C373.66 252.535 373.32 252.875 372.98 252.875ZM372.98 235.025C372.555 235.025 372.215 234.685 372.215 234.26V225.335C372.215 224.91 372.555 224.57 372.98 224.57C373.405 224.57 373.745 224.91 373.745 225.335V234.26C373.66 234.685 373.32 235.025 372.98 235.025ZM372.98 217.175C372.555 217.175 372.215 216.835 372.215 216.41V207.485C372.215 207.06 372.555 206.72 372.98 206.72C373.405 206.72 373.745 207.06 373.745 207.485V216.41C373.66 216.92 373.32 217.175 372.98 217.175Z" fill="#C5DFFF"/>
<path d="M382.925 199.41C382.5 199.41 382.16 199.07 382.16 198.645V194.65C382.16 194.225 382.5 193.885 382.925 193.885C383.35 193.885 383.69 194.225 383.69 194.65V198.645C383.605 199.07 383.35 199.41 382.925 199.41Z" fill="#C5DFFF"/>
<path d="M382.925 235.025C382.5 235.025 382.16 234.685 382.16 234.26V225.335C382.16 224.91 382.5 224.57 382.925 224.57C383.35 224.57 383.69 224.91 383.69 225.335V234.26C383.605 234.685 383.35 235.025 382.925 235.025ZM382.925 217.175C382.5 217.175 382.16 216.835 382.16 216.41V207.485C382.16 207.06 382.5 206.72 382.925 206.72C383.35 206.72 383.69 207.06 383.69 207.485V216.41C383.605 216.92 383.35 217.175 382.925 217.175Z" fill="#C5DFFF"/>
<path d="M392.87 199.41C392.445 199.41 392.105 199.07 392.105 198.645V194.65C392.105 194.225 392.445 193.885 392.87 193.885C393.295 193.885 393.635 194.225 393.635 194.65V198.645C393.635 199.07 393.295 199.41 392.87 199.41Z" fill="#C5DFFF"/>
<path d="M392.87 217.175C392.445 217.175 392.105 216.835 392.105 216.41V207.485C392.105 207.06 392.445 206.72 392.87 206.72C393.295 206.72 393.635 207.06 393.635 207.485V216.41C393.635 216.92 393.295 217.175 392.87 217.175Z" fill="#C5DFFF"/>
<path d="M332.18 116.28C332.18 119.51 300.22 122.995 265.625 122.995C231.03 122.995 204.85 125.375 201.195 120.36C200.685 119.68 200.685 119 201.195 118.405C203.745 115.26 218.62 114.24 221.17 114.07C221.425 114.07 221.51 114.07 221.51 114.07C221.51 114.07 211.31 102.85 219.13 93.755C226.95 84.66 235.365 92.65 235.365 92.65C235.365 92.65 232.05 75.225 241.485 70.89C241.74 70.805 241.995 70.635 242.25 70.55C252.365 66.98 256.275 79.985 256.53 80.665C256.53 80.665 256.785 63.155 272.34 61.625C274.975 61.37 277.355 61.88 279.395 62.985C289.17 68.17 291.805 85.595 291.805 85.595C292.485 84.915 300.135 77.69 308.38 82.365C316.88 87.21 312.205 99.705 312.035 100.045C312.29 99.96 318.325 98.6 320.28 102C322.235 105.485 320.28 110.84 320.28 110.84C320.28 110.84 324.785 111.605 328.185 112.88C330.14 113.645 331.84 114.58 332.095 115.685C332.18 116.025 332.18 116.11 332.18 116.28Z" fill="#273D7A"/>
<path d="M224.74 110.755C226.61 114.24 227.885 115.515 227.885 115.515C227.885 115.515 224.995 115.6 221.085 114.07C221.34 114.07 221.425 114.07 221.425 114.07C221.425 114.07 211.225 102.85 219.045 93.755C226.865 84.66 235.28 92.65 235.28 92.65C235.28 92.65 231.965 75.225 241.4 70.89C240.38 72.93 239.275 76.33 239.36 80.58C239.53 88.06 241.995 98.77 241.995 98.77C241.995 98.77 231.795 92.905 225.25 95.2C218.875 97.495 222.87 107.355 224.74 110.755Z" fill="#072359"/>
<path d="M332.18 116.28C332.18 119.51 300.22 122.995 265.625 122.995C231.03 122.995 204.85 125.375 201.195 120.36C200.685 119.68 200.685 119 201.195 118.405C205.445 119.765 214.115 121.38 231.03 120.785C259.335 119.68 316.2 119.51 330.055 116.45C330.82 116.28 331.5 116.11 332.18 115.94C332.18 116.025 332.18 116.11 332.18 116.28Z" fill="#072359"/>
<path d="M279.395 63.155C275.825 63.495 270.895 64.685 266.39 68.17C258.315 74.46 257.55 86.36 257.55 86.36L256.615 80.835C256.615 80.835 256.87 63.325 272.425 61.795C274.975 61.54 277.355 62.05 279.395 63.155Z" fill="#506893"/>
<path d="M317.39 112.37C317.39 112.37 318.58 108.46 316.115 105.23C313.65 102 307.02 104.55 307.02 104.55C307.02 104.55 312.29 91.3749 305.915 85.7649C299.71 80.3249 292.145 85.5099 291.805 85.7649C292.485 85.0849 300.135 77.8599 308.38 82.5349C316.88 87.3799 312.205 99.8749 312.035 100.215C312.29 100.13 318.325 98.7699 320.28 102.17C322.235 105.655 320.28 111.01 320.28 111.01C320.28 111.01 324.785 111.775 328.185 113.05C324.7 112.71 317.39 112.37 317.39 112.37Z" fill="#506893"/>
<path d="M193.885 143.905C191.505 146.455 181.73 147.9 162.945 149.855C147.815 151.47 129.03 152.065 127.67 148.665C126.31 145.265 138.465 143.905 138.465 143.905C138.465 143.905 134.47 139.145 140.08 133.365C144.16 129.115 150.79 133.195 151.045 133.365C150.96 133.11 145.095 121.04 150.705 114.75C151.64 113.73 152.83 112.795 154.445 112.2C154.53 112.2 154.615 112.115 154.7 112.115C166.09 108.035 172.38 131.75 172.38 131.75C172.38 131.75 183.175 126.14 186.745 131.155C190.145 135.83 188.19 140.675 187.935 141.27V141.355C187.935 141.355 192.61 141.355 193.97 142.46C194.395 142.8 194.48 143.31 193.885 143.905Z" fill="#273D7A"/>
<path d="M193.885 143.905C191.505 146.455 181.73 147.9 162.945 149.855C147.815 151.47 129.03 152.065 127.67 148.665C126.31 145.265 138.465 143.905 138.465 143.905C138.465 143.905 134.47 139.145 140.08 133.365C144.16 129.115 150.79 133.195 151.045 133.365C150.96 133.11 145.095 121.04 150.705 114.75C150.28 116.705 150.195 119.51 151.13 123.165C153.51 132.77 157.505 138.295 157.505 138.295C157.505 138.295 147.305 132.345 142.375 135.405C137.445 138.465 142.885 144.84 142.885 144.84C142.885 144.84 132.77 145.605 132.685 148.07C132.515 150.45 161.16 147.135 174.93 145.775C186.745 144.67 191.675 143.65 194.055 142.375C194.395 142.8 194.48 143.31 193.885 143.905Z" fill="#072359"/>
<path d="M187.935 141.27L186.915 141.78C186.915 141.78 187.765 134.045 183.685 132.005C179.52 129.965 170.51 136.17 170.51 136.17C170.51 136.17 169.745 128.01 164.56 120.19C161.245 115.175 157.165 113.05 154.7 112.115C166.09 108.035 172.38 131.75 172.38 131.75C172.38 131.75 183.175 126.14 186.745 131.155C190.145 135.83 188.19 140.76 187.935 141.27Z" fill="#506893"/>
<path d="M172.465 158.865L159.46 175.185C159.035 175.78 158.1 175.27 158.355 174.59L158.44 174.505L162.35 164.56C162.35 164.475 162.435 164.39 162.35 164.305C162.35 163.965 162.095 163.795 161.755 163.795L156.655 164.39C155.465 164.56 154.615 163.37 155.125 162.265L155.21 162.01L159.46 152.915L159.545 152.745C159.8 152.15 159.375 151.555 158.78 151.555L153.68 151.64C151.98 151.64 150.96 149.855 151.81 148.41L151.98 148.07L163.88 128.18C164.135 127.84 164.475 127.67 164.815 127.755C165.24 127.84 165.58 128.265 165.495 128.775L163.285 141.355C163.2 142.035 163.795 142.63 164.39 142.46L170 141.27C170.425 141.185 170.85 141.27 171.19 141.44C171.785 141.865 172.125 142.715 171.785 143.48L166.175 154.955C165.92 155.465 166.26 156.06 166.855 156.145C166.855 156.145 166.855 156.145 166.94 156.145L171.36 156.23C171.615 156.23 171.87 156.315 172.04 156.4C172.805 156.91 173.145 158.015 172.465 158.865Z" fill="#FEC272"/>
<path d="M159.46 153V152.83C159.715 152.235 159.29 151.64 158.695 151.64L153.595 151.725C151.895 151.725 150.875 149.94 151.725 148.495L151.895 148.155C152.15 148.495 152.575 148.75 153.425 148.835C154.955 148.92 159.12 148.835 160.395 148.835C161.585 149.005 159.46 153 159.46 153Z" fill="#FF8D76"/>
<path d="M162.35 164.22C162.35 163.88 162.095 163.71 161.755 163.71L156.655 164.305C155.465 164.475 154.615 163.285 155.125 162.18L155.21 161.925C155.635 162.01 156.4 162.18 157.59 162.01C159.715 161.755 162.775 161.16 163.03 161.415C163.2 161.84 162.52 163.795 162.35 164.22Z" fill="#FF8D76"/>
<path d="M163.2 141.44C163.115 142.12 163.71 142.715 164.305 142.545C162.69 143.14 161.075 143.31 161.33 141.695C161.585 140.25 164.22 129.795 164.645 127.84C165.07 127.925 165.41 128.35 165.325 128.86L163.2 141.44Z" fill="#FF8D76"/>
<path d="M166.175 155.125C165.92 155.635 166.26 156.23 166.855 156.315C166.77 156.315 166.685 156.315 166.6 156.315C165.155 156.315 163.795 155.89 164.815 153.935C165.665 152.235 170.085 143.905 171.275 141.695C171.87 142.12 172.21 142.97 171.87 143.735L166.175 155.125Z" fill="#FF8D76"/>
<path d="M172.465 158.865L159.46 175.185C159.035 175.78 158.1 175.27 158.355 174.59L158.44 174.505C158.95 173.995 159.885 173.145 161.16 171.275C162.69 169.065 170.425 158.695 172.04 156.485C172.805 156.91 173.145 158.015 172.465 158.865Z" fill="#FF8D76"/>
<path d="M279.819 168.81L248.539 208.08C247.434 209.44 245.309 208.25 245.904 206.55L245.989 206.295L255.509 182.325C255.594 182.155 255.594 181.985 255.594 181.73C255.594 181.05 254.914 180.37 254.149 180.54L241.909 181.985C239.104 182.325 237.064 179.52 238.254 176.97L238.509 176.46L248.624 154.615L248.794 154.275C249.389 152.915 248.369 151.3 246.924 151.385L234.684 151.64C230.604 151.725 228.054 147.305 230.179 143.82L230.604 143.14L259.164 95.37C259.674 94.435 260.609 94.18 261.459 94.35C262.479 94.605 263.329 95.54 263.074 96.815L257.804 126.99C257.549 128.605 258.909 129.965 260.524 129.625L274.124 126.735C275.144 126.48 276.164 126.735 276.929 127.245C278.459 128.18 279.224 130.22 278.289 132.09L264.859 159.715C264.264 160.99 265.114 162.435 266.474 162.52H266.559L277.099 162.69C277.694 162.69 278.204 162.86 278.714 163.115C280.584 164.05 281.434 166.855 279.819 168.81Z" fill="#FEC272"/>
<path d="M248.625 154.615H248.54L248.71 154.275C249.305 152.915 248.285 151.3 246.84 151.385L234.6 151.64C230.52 151.725 227.97 147.305 230.095 143.82L230.52 143.14C231.115 143.82 232.22 144.67 234.09 144.755C237.745 144.925 247.775 144.67 250.75 144.84C253.725 145.01 248.625 154.615 248.625 154.615Z" fill="#FF8D76"/>
<path d="M255.51 181.73C255.51 181.05 254.83 180.37 254.065 180.54L241.825 181.985C239.02 182.325 236.98 179.52 238.17 176.97L238.425 176.46C239.53 176.715 241.4 176.97 244.12 176.63C249.135 175.95 256.615 174.505 257.21 175.27C257.635 175.95 255.935 180.71 255.51 181.73Z" fill="#FF8D76"/>
<path d="M257.635 126.99C257.38 128.605 258.74 129.965 260.355 129.625C256.36 131.07 252.535 131.41 253.215 127.67C253.81 124.27 260.1 99.0251 261.205 94.4351C262.225 94.6901 263.075 95.6251 262.82 96.9001L257.635 126.99Z" fill="#FF8D76"/>
<path d="M264.69 159.715C264.095 160.99 264.945 162.435 266.305 162.52C266.05 162.52 265.88 162.52 265.625 162.52C262.055 162.52 258.91 161.5 261.29 156.74C263.33 152.575 273.87 132.685 276.76 127.245C278.29 128.18 279.055 130.22 278.12 132.09L264.69 159.715Z" fill="#FF8D76"/>
<path d="M279.82 168.81L248.54 208.08C247.435 209.44 245.31 208.25 245.905 206.55L245.99 206.295C247.265 205.105 249.39 202.98 252.535 198.56C256.275 193.205 274.805 168.3 278.63 163.115C280.585 164.05 281.435 166.855 279.82 168.81Z" fill="#FF8D76"/>
<path d="M371.535 191.759L360.74 205.274C360.4 205.784 359.635 205.359 359.805 204.764V204.679L363.035 196.434C363.035 196.349 363.035 196.264 363.035 196.264C363.035 196.009 362.78 195.839 362.525 195.839L358.275 196.349C357.34 196.434 356.575 195.499 357 194.649L357.085 194.479L360.57 186.999L360.655 186.914C360.91 186.404 360.485 185.894 359.975 185.894L355.725 185.979C354.365 185.979 353.43 184.449 354.195 183.259L354.365 183.004L364.225 166.514C364.395 166.174 364.735 166.089 364.99 166.174C365.33 166.259 365.67 166.599 365.585 167.024L363.8 177.394C363.715 177.904 364.225 178.414 364.735 178.329L369.41 177.309C369.75 177.224 370.09 177.309 370.345 177.479C370.855 177.819 371.11 178.499 370.855 179.179L366.18 188.699C366.01 189.124 366.265 189.634 366.69 189.634L370.345 189.719C370.515 189.719 370.77 189.804 370.855 189.889C371.79 190.144 372.045 191.079 371.535 191.759Z" fill="#FEC272"/>
<path d="M360.825 186.83V186.745C361.08 186.235 360.655 185.725 360.145 185.725L355.895 185.81C354.535 185.81 353.6 184.28 354.365 183.09L354.535 182.835C354.705 183.09 355.13 183.345 355.81 183.43C357.085 183.515 360.485 183.43 361.59 183.43C362.695 183.43 360.825 186.83 360.825 186.83Z" fill="#FF8D76"/>
<path d="M363.205 196.18C363.205 195.925 362.95 195.755 362.695 195.755L358.445 196.265C357.51 196.35 356.745 195.415 357.17 194.565L357.255 194.395C357.595 194.48 358.275 194.565 359.21 194.48C360.91 194.225 363.545 193.8 363.715 194.055C363.885 194.225 363.29 195.84 363.205 196.18Z" fill="#FF8D76"/>
<path d="M363.885 177.31C363.8 177.82 364.31 178.33 364.82 178.245C363.46 178.755 362.1 178.84 362.355 177.565C362.525 176.375 364.735 167.705 365.16 166.09C365.5 166.175 365.84 166.515 365.755 166.94L363.885 177.31Z" fill="#FF8D76"/>
<path d="M366.35 188.615C366.18 189.04 366.435 189.55 366.86 189.55C366.775 189.55 366.69 189.55 366.605 189.55C365.415 189.55 364.31 189.21 365.16 187.51C365.84 186.065 369.495 179.18 370.515 177.31C371.025 177.65 371.28 178.33 371.025 179.01L366.35 188.615Z" fill="#FF8D76"/>
<path d="M371.535 191.76L360.74 205.275C360.4 205.785 359.635 205.36 359.805 204.765V204.68C360.23 204.255 360.995 203.575 362.015 202.045C363.29 200.175 369.665 191.59 371.025 189.805C371.79 190.145 372.045 191.08 371.535 191.76Z" fill="#FF8D76"/>
<path d="M396.355 183.515C396.27 185.47 380.8 187.595 363.545 188.02C346.29 188.445 335.325 186.745 336.515 184.79C337.705 182.92 343.995 182.24 343.995 182.24C343.995 182.24 338.045 177.65 341.19 171.19C344.42 164.73 351.305 169.32 351.305 169.32C351.305 169.32 349.095 159.46 355.555 156.315C356.575 155.805 357.765 155.465 359.21 155.38C359.975 155.295 360.655 155.38 361.42 155.465C370.685 156.825 374.595 171.53 374.595 171.53C374.595 171.53 379.865 166.005 383.775 169.32C387.685 172.635 385.985 178.415 385.985 178.415C385.985 178.415 387.855 177.225 390.235 177.82C391.51 178.16 392.02 179.01 392.275 179.86C392.53 180.625 392.53 181.305 392.53 181.305C392.53 181.305 394.57 181.475 395.675 182.24C396.1 182.495 396.355 182.92 396.355 183.515Z" fill="#273D7A"/>
<path d="M396.355 183.515C396.27 185.47 380.8 187.595 363.545 188.02C346.29 188.445 335.325 186.745 336.515 184.79C337.705 182.92 343.995 182.24 343.995 182.24C343.995 182.24 338.045 177.65 341.19 171.19C344.42 164.73 351.305 169.32 351.305 169.32C351.305 169.32 349.095 159.46 355.555 156.315C354.875 158.015 354.025 160.735 354.195 163.54C354.62 168.81 356.745 172.89 356.915 173.145C356.575 172.975 349.095 169.235 345.1 171.53C341.02 173.91 346.97 183.09 346.97 183.09C346.97 183.09 341.53 184.28 344.165 185.47C346.8 186.66 372.385 186.49 382.16 185.385C388.705 184.62 393.295 183.175 395.675 182.24C396.1 182.495 396.355 182.92 396.355 183.515Z" fill="#072359"/>
<path d="M392.275 179.775C392.02 179.605 391.68 179.52 391.425 179.35C389.045 178.16 384.115 180.54 384.115 180.54C384.115 180.54 385.135 173.145 382.16 171.19C379.185 169.235 373.66 175.61 373.66 175.61C373.66 175.61 372.98 171.615 369.495 164.73C367.37 160.565 363.885 157.335 361.42 155.38C370.685 156.74 374.595 171.445 374.595 171.445C374.595 171.445 379.865 165.92 383.775 169.235C387.685 172.55 385.985 178.33 385.985 178.33C385.985 178.33 387.855 177.14 390.235 177.735C391.425 177.99 392.02 178.925 392.275 179.775Z" fill="#506893"/>
<path d="M264.52 396.44V434.69C264.52 437.75 262.055 440.3 258.91 440.3H160.055C156.995 440.3 154.445 437.835 154.445 434.69V396.44C154.445 393.38 156.91 390.83 160.055 390.83H258.995C262.055 390.83 264.52 393.38 264.52 396.44Z" fill="#E1ECFF"/>
<path d="M170.85 404.09C172.446 404.09 173.74 402.796 173.74 401.2C173.74 399.604 172.446 398.31 170.85 398.31C169.254 398.31 167.96 399.604 167.96 401.2C167.96 402.796 169.254 404.09 170.85 404.09Z" fill="#273D7A"/>
<path d="M181.135 404.09C182.731 404.09 184.025 402.796 184.025 401.2C184.025 399.604 182.731 398.31 181.135 398.31C179.539 398.31 178.245 399.604 178.245 401.2C178.245 402.796 179.539 404.09 181.135 404.09Z" fill="#FF8D76"/>
<path d="M191.335 404.09C192.931 404.09 194.225 402.796 194.225 401.2C194.225 399.604 192.931 398.31 191.335 398.31C189.739 398.31 188.445 399.604 188.445 401.2C188.445 402.796 189.739 404.09 191.335 404.09Z" fill="#FF8D76"/>
<path d="M249.05 416.5H223.805C222.7 416.5 221.765 415.565 221.765 414.46C221.765 413.355 222.7 412.42 223.805 412.42H249.05C250.155 412.42 251.09 413.355 251.09 414.46C251.09 415.565 250.24 416.5 249.05 416.5Z" fill="#273D7A"/>
<path d="M249.56 418.71C251.907 418.71 253.81 416.807 253.81 414.46C253.81 412.113 251.907 410.21 249.56 410.21C247.213 410.21 245.31 412.113 245.31 414.46C245.31 416.807 247.213 418.71 249.56 418.71Z" fill="#FF8D76"/>
<path d="M213.52 440.3H167.365L169.065 436.135C169.915 434.01 171.955 432.65 174.25 432.65H206.72C209.015 432.65 210.97 434.01 211.905 436.135L213.52 440.3Z" fill="#273D7A"/>
<path d="M252.62 440.3H167.96V448.715H252.62V440.3Z" fill="#273D7A"/>
<path d="M252.62 440.3H167.96V444.465H252.62V440.3Z" fill="#072359"/>
<path d="M163.285 390.83V440.3H160.055C156.995 440.3 154.445 437.835 154.445 434.69V396.44C154.445 393.38 156.91 390.83 160.055 390.83H163.285Z" fill="#CDE0FC"/>
<path d="M264.52 396.44V434.69C264.52 437.75 262.055 440.3 258.91 440.3H257.125V390.83H258.91C262.055 390.83 264.52 393.38 264.52 396.44Z" fill="#F0F5FC"/>
<path d="M264.52 351.815V378.675C264.52 381.735 262.055 384.285 258.91 384.285H160.055C156.995 384.285 154.445 381.82 154.445 378.675V351.815C154.445 348.755 156.91 346.205 160.055 346.205H258.995C262.055 346.205 264.52 348.755 264.52 351.815Z" fill="#E1ECFF"/>
<path d="M170.85 359.465C172.446 359.465 173.74 358.171 173.74 356.575C173.74 354.979 172.446 353.685 170.85 353.685C169.254 353.685 167.96 354.979 167.96 356.575C167.96 358.171 169.254 359.465 170.85 359.465Z" fill="#FF8D76"/>
<path d="M181.135 359.465C182.731 359.465 184.025 358.171 184.025 356.575C184.025 354.979 182.731 353.685 181.135 353.685C179.539 353.685 178.245 354.979 178.245 356.575C178.245 358.171 179.539 359.465 181.135 359.465Z" fill="#FF8D76"/>
<path d="M191.335 359.465C192.931 359.465 194.225 358.171 194.225 356.575C194.225 354.979 192.931 353.685 191.335 353.685C189.739 353.685 188.445 354.979 188.445 356.575C188.445 358.171 189.739 359.465 191.335 359.465Z" fill="#273D7A"/>
<path d="M249.05 363.545H223.805C222.7 363.545 221.765 362.61 221.765 361.505C221.765 360.4 222.7 359.465 223.805 359.465H249.05C250.155 359.465 251.09 360.4 251.09 361.505C251.09 362.61 250.24 363.545 249.05 363.545Z" fill="#273D7A"/>
<path d="M249.56 365.67C251.907 365.67 253.81 363.767 253.81 361.42C253.81 359.073 251.907 357.17 249.56 357.17C247.213 357.17 245.31 359.073 245.31 361.42C245.31 363.767 247.213 365.67 249.56 365.67Z" fill="#FF8D76"/>
<path d="M213.52 384.285H167.365L169.065 380.12C169.915 377.995 171.955 376.635 174.25 376.635H206.72C209.015 376.635 210.97 377.995 211.905 380.12L213.52 384.285Z" fill="#273D7A"/>
<path d="M252.62 384.285H167.96V390.83H252.62V384.285Z" fill="#273D7A"/>
<path d="M252.62 384.285H167.96V387.6H252.62V384.285Z" fill="#072359"/>
<path d="M163.285 346.205V384.2H160.055C156.995 384.2 154.445 381.735 154.445 378.59V351.73C154.445 348.67 156.91 346.12 160.055 346.12H163.285V346.205Z" fill="#CDE0FC"/>
<path d="M264.52 351.815V378.675C264.52 381.735 262.055 384.285 258.91 384.285H257.125V346.29H258.91C262.055 346.205 264.52 348.755 264.52 351.815Z" fill="#F0F5FC"/>
<path d="M264.52 312.715V334.05C264.52 337.11 262.055 339.66 258.91 339.66H160.055C156.995 339.66 154.445 337.195 154.445 334.05V312.63C154.445 309.57 156.91 307.02 160.055 307.02H258.995C262.055 307.105 264.52 309.57 264.52 312.715Z" fill="#E1ECFF"/>
<path d="M170.85 320.365C172.446 320.365 173.74 319.071 173.74 317.475C173.74 315.879 172.446 314.585 170.85 314.585C169.254 314.585 167.96 315.879 167.96 317.475C167.96 319.071 169.254 320.365 170.85 320.365Z" fill="#273D7A"/>
<path d="M181.135 320.365C182.731 320.365 184.025 319.071 184.025 317.475C184.025 315.879 182.731 314.585 181.135 314.585C179.539 314.585 178.245 315.879 178.245 317.475C178.245 319.071 179.539 320.365 181.135 320.365Z" fill="#FF8D76"/>
<path d="M191.335 320.365C192.931 320.365 194.225 319.071 194.225 317.475C194.225 315.879 192.931 314.585 191.335 314.585C189.739 314.585 188.445 315.879 188.445 317.475C188.445 319.071 189.739 320.365 191.335 320.365Z" fill="#FF8D76"/>
<path d="M249.05 324.36H223.805C222.7 324.36 221.765 323.425 221.765 322.32C221.765 321.215 222.7 320.28 223.805 320.28H249.05C250.155 320.28 251.09 321.215 251.09 322.32C251.09 323.425 250.24 324.36 249.05 324.36Z" fill="#273D7A"/>
<path d="M249.56 326.57C251.907 326.57 253.81 324.667 253.81 322.32C253.81 319.973 251.907 318.07 249.56 318.07C247.213 318.07 245.31 319.973 245.31 322.32C245.31 324.667 247.213 326.57 249.56 326.57Z" fill="#FF8D76"/>
<path d="M213.52 339.66H167.365L169.065 335.495C169.915 333.37 171.955 332.01 174.25 332.01H206.72C209.015 332.01 210.97 333.37 211.905 335.495L213.52 339.66Z" fill="#273D7A"/>
<path d="M252.62 339.66H167.96V346.205H252.62V339.66Z" fill="#273D7A"/>
<path d="M252.62 339.66H167.96V342.975H252.62V339.66Z" fill="#072359"/>
<path d="M163.285 307.105V339.66H160.055C156.995 339.66 154.445 337.195 154.445 334.05V312.63C154.445 309.57 156.91 307.02 160.055 307.02H163.285V307.105Z" fill="#CDE0FC"/>
<path d="M264.52 312.715V334.05C264.52 337.11 262.055 339.66 258.91 339.66H257.125V307.105H258.91C262.055 307.105 264.52 309.57 264.52 312.715Z" fill="#F0F5FC"/>
<path d="M264.52 273.53V294.95C264.52 298.01 262.055 300.56 258.91 300.56H160.055C156.995 300.56 154.445 298.095 154.445 294.95V273.53C154.445 270.47 156.91 267.92 160.055 267.92H258.995C262.055 268.005 264.52 270.47 264.52 273.53Z" fill="#E1ECFF"/>
<path d="M170.85 281.18C172.446 281.18 173.74 279.886 173.74 278.29C173.74 276.694 172.446 275.4 170.85 275.4C169.254 275.4 167.96 276.694 167.96 278.29C167.96 279.886 169.254 281.18 170.85 281.18Z" fill="#FF8D76"/>
<path d="M181.135 281.18C182.731 281.18 184.025 279.886 184.025 278.29C184.025 276.694 182.731 275.4 181.135 275.4C179.539 275.4 178.245 276.694 178.245 278.29C178.245 279.886 179.539 281.18 181.135 281.18Z" fill="#FF8D76"/>
<path d="M191.335 281.18C192.931 281.18 194.225 279.886 194.225 278.29C194.225 276.694 192.931 275.4 191.335 275.4C189.739 275.4 188.445 276.694 188.445 278.29C188.445 279.886 189.739 281.18 191.335 281.18Z" fill="#273D7A"/>
<path d="M249.05 285.26H223.805C222.7 285.26 221.765 284.325 221.765 283.22C221.765 282.115 222.7 281.18 223.805 281.18H249.05C250.155 281.18 251.09 282.115 251.09 283.22C251.09 284.325 250.24 285.26 249.05 285.26Z" fill="#273D7A"/>
<path d="M249.56 287.47C251.907 287.47 253.81 285.567 253.81 283.22C253.81 280.873 251.907 278.97 249.56 278.97C247.213 278.97 245.31 280.873 245.31 283.22C245.31 285.567 247.213 287.47 249.56 287.47Z" fill="#FF8D76"/>
<path d="M213.52 300.56H167.365L169.065 296.395C169.915 294.27 171.955 292.91 174.25 292.91H206.72C209.015 292.91 210.97 294.27 211.905 296.395L213.52 300.56Z" fill="#273D7A"/>
<path d="M252.62 300.56H167.96V307.105H252.62V300.56Z" fill="#273D7A"/>
<path d="M252.62 300.56H167.96V303.875H252.62V300.56Z" fill="#072359"/>
<path d="M163.285 268.005V300.56H160.055C156.995 300.56 154.445 298.095 154.445 294.95V273.53C154.445 270.47 156.91 267.92 160.055 267.92H163.285V268.005Z" fill="#CDE0FC"/>
<path d="M264.52 273.53V294.95C264.52 298.01 262.055 300.56 258.91 300.56H257.125V268.005H258.91C262.055 268.005 264.52 270.47 264.52 273.53Z" fill="#F0F5FC"/>
<path d="M325.975 344.505V443.785C325.975 446.42 323.765 448.63 321.13 448.63H271.575C268.855 448.63 266.73 446.42 266.73 443.785V344.505C266.73 341.785 268.94 339.66 271.575 339.66H321.13C323.765 339.66 325.975 341.87 325.975 344.505Z" fill="#FF97C9"/>
<path d="M282.455 339.66V448.63H271.575C268.855 448.63 266.73 446.42 266.73 443.785V344.505C266.73 341.785 268.94 339.66 271.575 339.66H282.455Z" fill="#F774B9"/>
<path d="M273.36 351.05H298.775C300.135 351.05 301.155 352.155 301.155 353.43V364.905C301.155 366.265 300.05 367.285 298.775 367.285H273.36C272 367.285 270.98 366.18 270.98 364.905V353.43C270.895 352.07 272 351.05 273.36 351.05Z" fill="#5A7FDB"/>
<path d="M321.725 353.43V364.905C321.725 366.265 320.62 367.285 319.345 367.285H307.615C306.255 367.285 305.235 366.18 305.235 364.905V353.43C305.235 352.07 306.34 351.05 307.615 351.05H319.345C320.62 351.05 321.725 352.07 321.725 353.43Z" fill="#273D7A"/>
<path d="M303.365 440.3H289.255C288.235 440.3 287.385 439.45 287.385 438.43V416.755C287.385 415.735 288.235 414.885 289.255 414.885H303.365C304.385 414.885 305.235 415.735 305.235 416.755V438.43C305.235 439.45 304.385 440.3 303.365 440.3Z" fill="#273D7A"/>
<path d="M302.26 429.25H290.36C289.595 429.25 289 428.655 289 427.89V418.54C289 417.775 289.595 417.18 290.36 417.18H302.26C303.025 417.18 303.62 417.775 303.62 418.54V427.89C303.705 428.655 303.025 429.25 302.26 429.25Z" fill="#142966"/>
<path d="M302.09 438.005H290.53C289.68 438.005 289 437.325 289 436.475V432.48C289 431.63 289.68 430.95 290.53 430.95H302.09C302.94 430.95 303.62 431.63 303.62 432.48V436.475C303.705 437.325 302.94 438.005 302.09 438.005Z" fill="#142966"/>
<path d="M296.31 436.73C297.531 436.73 298.52 435.741 298.52 434.52C298.52 433.3 297.531 432.31 296.31 432.31C295.09 432.31 294.1 433.3 294.1 434.52C294.1 435.741 295.09 436.73 296.31 436.73Z" fill="#FEC272"/>
<path d="M321.725 374.51V405.45C321.725 406.895 320.62 408.085 319.175 408.085H273.36C272.51 408.085 271.66 407.575 271.235 406.895C270.98 406.47 270.81 405.96 270.81 405.45V374.51C270.81 373.065 271.915 371.875 273.36 371.875H319.175C320.365 371.875 321.385 372.725 321.64 373.915C321.725 374.17 321.725 374.34 321.725 374.51Z" fill="#273D7A"/>
<path d="M319.855 376.21V403.835C319.855 405.11 318.835 406.13 317.56 406.13H275.145C274.295 406.13 273.615 405.705 273.19 405.025C272.935 404.685 272.85 404.26 272.85 403.75V376.125C272.85 374.85 273.87 373.83 275.145 373.83H317.56C318.665 373.83 319.6 374.595 319.855 375.7C319.855 375.87 319.855 376.04 319.855 376.21Z" fill="#94ADEA"/>
<path d="M319.854 375.7L286.789 406.215H275.144C274.294 406.215 273.614 405.79 273.189 405.11L307.104 373.83H317.559C318.664 373.83 319.599 374.595 319.854 375.7Z" fill="#738DE0"/>
<path d="M319.855 386.835V400.435L313.65 406.215H298.86L319.855 386.835Z" fill="#738DE0"/>
<path d="M292.825 373.83L272.765 392.36V378.675L278.035 373.83H292.825Z" fill="#738DE0"/>
<path d="M249.56 266.475H200.77L201.62 264.095L206.805 250.07L211.395 237.575L216.58 223.55L221.85 209.1C222.02 208.505 222.36 208.08 222.785 207.74C224.485 206.125 227.545 206.635 228.48 209.1L230.605 214.965L233.835 223.805L236.725 231.71L239.955 240.55L242.845 248.455L246.075 257.295L249.56 266.475Z" fill="#FF8D76"/>
<path d="M233.835 223.805L219.045 232.9L211.395 237.575L216.495 223.635L220.83 221L230.605 214.965L233.835 223.805Z" fill="#273D7A"/>
<path d="M239.955 240.465L215.645 255.425L201.62 264.095L206.805 250.07L217.43 243.525L236.725 231.625L239.955 240.465Z" fill="#273D7A"/>
<path d="M246.16 257.21L231.03 266.475H213.52L214.03 266.135L242.93 248.37L246.16 257.21Z" fill="#273D7A"/>
<path d="M222.785 207.74L214.03 266.475H200.77L201.62 264.095L206.805 250.07L211.395 237.575L216.58 223.55L221.85 209.1C222.105 208.59 222.36 208.08 222.785 207.74Z" fill="#FF8D76"/>
<path d="M213.52 266.475L214.03 266.135V266.475H213.52Z" fill="#FF8D76"/>
<path d="M217.43 243.525L215.645 255.425L201.62 264.095L206.805 250.07L217.43 243.525Z" fill="#072359"/>
<path d="M220.83 221L219.045 232.9L211.395 237.575L216.495 223.635L220.83 221Z" fill="#072359"/>
<path d="M250.24 268.005H198.815C197.285 268.005 196.095 266.73 196.095 265.285V265.115C196.095 263.585 197.37 262.395 198.815 262.395H250.24C251.77 262.395 252.96 263.67 252.96 265.115V265.285C252.96 266.73 251.77 268.005 250.24 268.005Z" fill="#FF8D76"/>
<path d="M155.125 259.165L143.905 230.605L136.765 234.43L154.275 259.59L155.125 259.165Z" fill="#FEC272"/>
<path d="M125.885 230.605L119.085 237.915L149.855 263.415L151.215 262.14L125.885 230.605Z" fill="#FEC272"/>
<path d="M125.12 249.645L121.21 256.105L146.795 267.41L147.39 266.39L125.12 249.645Z" fill="#FEC272"/>
<path d="M320.62 317.645L318.835 329.885C318.835 329.885 324.02 329.63 327.93 332.945C333.03 337.365 333.625 341.445 333.625 341.445L352.835 331.67C352.835 331.67 340 335.92 335.75 331.585C331.5 327.25 335.07 318.495 335.07 318.495C335.07 318.495 329.375 325.89 325.125 324.615C320.96 323.425 320.62 317.645 320.62 317.645Z" fill="#FEC272"/>
</svg>
